<svg width="60" height="77" viewBox="0 0 60 77" fill="none" xmlns="http://www.w3.org/2000/svg">
<title>日本バドミントン協会</title>
<g clip-path="url(#clip0_6105_74389)">
<path d="M0 61.07V68.23H4.56V61.07H0ZM3.58 61.97V64.2H0.98V61.97H3.58ZM0.98 67.34V65.1H3.58V67.34H0.98Z" fill="#231815"/>
<path d="M21.3599 61.07H20.3799V68.23H21.3599V64.75L23.5499 65.34V64.32L21.3599 63.73V61.07Z" fill="#231815"/>
<path d="M22.8398 61.07H22.2998V62.14H22.8398V61.07Z" fill="#231815"/>
<path d="M23.7299 61.07H23.1899V62.14H23.7299V61.07Z" fill="#231815"/>
<path d="M37.4199 61.07H36.4399V68.23H37.4199V64.75L39.6099 65.34V64.32L37.4199 63.73V61.07Z" fill="#231815"/>
<path d="M28.4298 65.34V64.32L25.7798 63.61V64.63L28.4298 65.34Z" fill="#231815"/>
<path d="M25.4302 67.27L29.0002 68.23V67.21L25.4302 66.25V67.27Z" fill="#231815"/>
<path d="M28.6101 61.85L25.6001 61.05V62.06L28.6101 62.87V61.85Z" fill="#231815"/>
<path d="M17.6601 61.07H17.1201V62.14H17.6601V61.07Z" fill="#231815"/>
<path d="M18.5498 61.07H18.0098V62.14H18.5498V61.07Z" fill="#231815"/>
<path d="M13.2402 68.23H14.2402L15.3402 61.96H14.3502L13.2402 68.23Z" fill="#231815"/>
<path d="M15.4702 61.07L17.3902 68.23H18.4102L16.4902 61.07H15.4702Z" fill="#231815"/>
<path d="M48.3501 63.31V62.42H47.8201V61.07H46.8801V62.42H46.3101V63.31H46.8801V68.23H47.8201V63.31H48.3501Z" fill="#231815"/>
<path d="M49.4701 65.37L49.5901 64.65H48.7401L48.6201 65.37H48.1401V66.23H48.4801L48.1401 68.23H48.9901L49.3301 66.23H49.5401V68.23H50.3701V65.37H49.4701Z" fill="#231815"/>
<path d="M51.9899 65.37L52.1099 64.65H51.2699L51.1499 65.37H50.6699V66.23H50.9999L50.6699 68.23H51.5199L51.8499 66.23H52.0599V68.23H52.8999V65.37H51.9899Z" fill="#231815"/>
<path d="M49.2599 64.4H50.2099L50.5299 62.51H51.0499V64.4H51.9799V61.61H50.6799L50.7699 61.07H49.8199L49.7299 61.61H48.9199V62.51H49.5799L49.2599 64.4Z" fill="#231815"/>
<path d="M55.65 63.71V64.2H58.16V63.72L58.81 64.64H60.01L57.5 61.06H56.3L53.79 64.64H54.99L55.65 63.7V63.71ZM56.89 61.93L57.86 63.31H55.93L56.9 61.93H56.89Z" fill="#231815"/>
<path d="M57.2499 66.44L57.6699 67.34H56.1299L56.8399 65.82H59.0499V64.92H54.7499V65.82H55.7499L54.6299 68.23H59.1699L58.3299 66.44H57.2499Z" fill="#231815"/>
<path d="M32.3598 61.88L30.5698 61.4V62.42L32.3598 62.9V61.88Z" fill="#231815"/>
<path d="M30.8901 68.23H31.9801L34.9101 61.96H33.8201L30.8901 68.23Z" fill="#231815"/>
<path d="M42.7002 61.88L40.9102 61.4V62.42L42.7002 62.9V61.88Z" fill="#231815"/>
<path d="M41.2402 68.23H42.3202L45.2502 61.96H44.1602L41.2402 68.23Z" fill="#231815"/>
<path d="M11.64 62.86V61.97H9.54004V61.07H8.56004V61.97H6.45004V62.86H7.58004L6.29004 67.7H7.31004L8.56004 63.04V66H7.97004V66.89H8.56004V68.23H9.54004V66.89H10.12V66H9.54004V63.04L10.79 67.7H11.81L10.51 62.86H11.64Z" fill="#231815"/>
<path d="M0.000234375 74.88V70.85H0.840234C1.02023 70.85 1.18023 70.88 1.31023 70.93C1.44023 70.98 1.55023 71.06 1.63023 71.16C1.71023 71.25 1.77023 71.36 1.81023 71.49C1.85023 71.61 1.86023 71.74 1.86023 71.87V72.02C1.86023 72.13 1.86023 72.22 1.83023 72.3C1.80023 72.38 1.79023 72.44 1.75023 72.5C1.69023 72.61 1.59023 72.7 1.46023 72.77C1.60023 72.83 1.70023 72.93 1.76023 73.05C1.82023 73.17 1.86023 73.34 1.86023 73.56V73.79C1.86023 74.14 1.77023 74.42 1.60023 74.6C1.43023 74.79 1.15023 74.88 0.780234 74.88H-0.00976562H0.000234375ZM0.580234 71.4V72.51H0.840234C1.03023 72.51 1.16023 72.46 1.23023 72.37C1.30023 72.27 1.33023 72.13 1.33023 71.95C1.33023 71.77 1.29023 71.63 1.22023 71.54C1.15023 71.45 1.01023 71.4 0.820234 71.4H0.580234ZM0.580234 73.02V74.31H0.830234C0.950234 74.31 1.04023 74.29 1.10023 74.26C1.17023 74.23 1.22023 74.18 1.25023 74.12C1.28023 74.06 1.30023 73.99 1.31023 73.91C1.31023 73.83 1.32023 73.74 1.32023 73.64C1.32023 73.54 1.32023 73.45 1.30023 73.37C1.28023 73.29 1.27023 73.23 1.23023 73.18C1.19023 73.13 1.14023 73.09 1.08023 73.06C1.02023 73.04 0.930234 73.02 0.830234 73.02H0.580234Z" fill="#231815"/>
<path d="M3.59014 74.88V74.59H3.58014C3.50014 74.7 3.43014 74.78 3.35014 74.83C3.27014 74.89 3.16014 74.91 3.02014 74.91C2.95014 74.91 2.88014 74.9 2.81014 74.88C2.74014 74.86 2.67014 74.82 2.61014 74.76C2.55014 74.71 2.49014 74.63 2.45014 74.53C2.41014 74.43 2.39014 74.3 2.39014 74.14C2.39014 73.98 2.40014 73.84 2.43014 73.71C2.46014 73.59 2.51014 73.48 2.58014 73.4C2.65014 73.32 2.74014 73.26 2.86014 73.22C2.98014 73.18 3.13014 73.16 3.31014 73.16H3.37014C3.37014 73.16 3.41014 73.16 3.43014 73.16C3.45014 73.16 3.47014 73.16 3.50014 73.16C3.53014 73.16 3.55014 73.16 3.58014 73.16V72.86C3.58014 72.76 3.56014 72.68 3.52014 72.62C3.48014 72.56 3.40014 72.52 3.29014 72.52C3.21014 72.52 3.15014 72.54 3.08014 72.59C3.01014 72.64 2.98014 72.71 2.96014 72.8H2.40014C2.42014 72.54 2.50014 72.34 2.66014 72.18C2.74014 72.1 2.83014 72.05 2.93014 72C3.04014 71.96 3.15014 71.94 3.29014 71.94C3.41014 71.94 3.52014 71.96 3.63014 72C3.74014 72.04 3.83014 72.09 3.91014 72.17C3.99014 72.25 4.05014 72.34 4.09014 72.45C4.14014 72.56 4.16014 72.7 4.16014 72.85V74.85H3.58014L3.59014 74.88ZM3.59014 73.65C3.53014 73.64 3.47014 73.63 3.43014 73.63C3.31014 73.63 3.20014 73.66 3.11014 73.72C3.02014 73.78 2.98014 73.88 2.98014 74.04C2.98014 74.15 3.01014 74.24 3.06014 74.31C3.11014 74.38 3.19014 74.41 3.28014 74.41C3.37014 74.41 3.45014 74.38 3.51014 74.31C3.56014 74.25 3.59014 74.16 3.59014 74.04V73.65Z" fill="#231815"/>
<path d="M5.88023 74.88V74.62C5.88023 74.62 5.81023 74.7 5.77023 74.74C5.74023 74.78 5.70023 74.81 5.66023 74.83C5.62023 74.86 5.57023 74.88 5.52023 74.89C5.47023 74.91 5.40023 74.91 5.33023 74.91C5.09023 74.91 4.92023 74.82 4.83023 74.64C4.80023 74.58 4.77023 74.5 4.76023 74.4C4.74023 74.31 4.74023 74.18 4.74023 74.02V72.93C4.74023 72.72 4.74023 72.57 4.76023 72.47C4.78023 72.28 4.87023 72.14 5.03023 72.05C5.10023 72 5.21023 71.98 5.35023 71.98C5.46023 71.98 5.56023 72.01 5.65023 72.06C5.74023 72.11 5.81023 72.18 5.88023 72.28H5.89023V70.86H6.47023V74.89H5.89023L5.88023 74.88ZM5.31023 73.95C5.31023 74.07 5.33023 74.16 5.38023 74.23C5.43023 74.3 5.50023 74.34 5.59023 74.34C5.68023 74.34 5.75023 74.31 5.80023 74.24C5.85023 74.17 5.88023 74.09 5.88023 73.98V72.87C5.88023 72.78 5.85023 72.71 5.80023 72.65C5.75023 72.59 5.68023 72.56 5.59023 72.56C5.48023 72.56 5.41023 72.59 5.37023 72.66C5.33023 72.73 5.31023 72.81 5.31023 72.9V73.95Z" fill="#231815"/>
<path d="M7.05029 74.88V72.01H7.63029V72.29H7.64029C7.70029 72.2 7.77029 72.13 7.86029 72.07C7.95029 72.01 8.05029 71.98 8.19029 71.98C8.31029 71.98 8.42029 72.01 8.50029 72.07C8.58029 72.13 8.65029 72.2 8.70029 72.27C8.77029 72.19 8.85029 72.12 8.94029 72.07C9.03029 72.01 9.15029 71.99 9.30029 71.99C9.37029 71.99 9.45029 72 9.52029 72.03C9.60029 72.05 9.66029 72.09 9.72029 72.15C9.78029 72.21 9.83029 72.28 9.87029 72.37C9.91029 72.46 9.93029 72.57 9.93029 72.7V74.9H9.35029V72.92C9.35029 72.81 9.33029 72.73 9.28029 72.67C9.23029 72.61 9.16029 72.58 9.07029 72.58C8.96029 72.58 8.89029 72.61 8.84029 72.68C8.80029 72.75 8.78029 72.85 8.78029 72.97V74.9H8.20029V72.92C8.20029 72.81 8.18029 72.73 8.13029 72.67C8.08029 72.61 8.01029 72.58 7.92029 72.58C7.81029 72.58 7.74029 72.61 7.69029 72.68C7.65029 72.75 7.63029 72.85 7.63029 72.97V74.9H7.05029V74.88Z" fill="#231815"/>
<path d="M10.52 71.44V70.86H11.1V71.44H10.52ZM10.52 74.88V72.01H11.1V74.88H10.52Z" fill="#231815"/>
<path d="M11.6904 74.88V72.01H12.2704V72.29H12.2804C12.3404 72.2 12.4104 72.13 12.5004 72.07C12.5904 72.01 12.6904 71.98 12.8304 71.98C12.9004 71.98 12.9704 71.99 13.0404 72.02C13.1104 72.04 13.1804 72.08 13.2304 72.14C13.2904 72.2 13.3304 72.27 13.3704 72.36C13.4004 72.45 13.4204 72.56 13.4204 72.69V74.89H12.8404V72.91C12.8404 72.8 12.8204 72.72 12.7704 72.66C12.7204 72.6 12.6504 72.57 12.5604 72.57C12.4504 72.57 12.3804 72.6 12.3304 72.67C12.2904 72.74 12.2704 72.84 12.2704 72.96V74.89H11.6904V74.88Z" fill="#231815"/>
<path d="M14.1301 72.02V71.15H14.7101V72.02H15.0701V72.47H14.7101V74.06C14.7101 74.13 14.7101 74.18 14.7301 74.22C14.7401 74.26 14.7601 74.29 14.7901 74.3C14.8201 74.31 14.8601 74.33 14.9001 74.33C14.9401 74.33 15.0001 74.33 15.0601 74.33V74.87H14.8201C14.6901 74.87 14.5801 74.85 14.4901 74.81C14.4001 74.77 14.3301 74.72 14.2801 74.65C14.2301 74.59 14.1901 74.51 14.1601 74.43C14.1301 74.35 14.1201 74.27 14.1201 74.2V72.46H13.8301V72.01H14.1201L14.1301 72.02Z" fill="#231815"/>
<path d="M15.5 72.98C15.5 72.86 15.5 72.76 15.52 72.66C15.54 72.56 15.56 72.48 15.6 72.4C15.67 72.28 15.76 72.18 15.89 72.1C16.02 72.02 16.17 71.99 16.35 71.99C16.53 71.99 16.68 72.03 16.81 72.1C16.94 72.18 17.03 72.28 17.1 72.4C17.14 72.48 17.17 72.56 17.18 72.66C17.2 72.76 17.2 72.87 17.2 72.98V73.92C17.2 74.04 17.2 74.14 17.18 74.24C17.16 74.34 17.14 74.42 17.1 74.5C17.03 74.62 16.94 74.72 16.81 74.8C16.68 74.88 16.53 74.91 16.35 74.91C16.17 74.91 16.02 74.87 15.89 74.8C15.76 74.72 15.67 74.62 15.6 74.5C15.56 74.42 15.53 74.34 15.52 74.24C15.5 74.14 15.5 74.03 15.5 73.92V72.98ZM16.08 74.01C16.08 74.12 16.11 74.2 16.16 74.26C16.21 74.31 16.28 74.34 16.37 74.34C16.46 74.34 16.53 74.31 16.58 74.26C16.63 74.21 16.66 74.12 16.66 74.01V72.89C16.66 72.78 16.63 72.7 16.58 72.64C16.53 72.59 16.46 72.56 16.37 72.56C16.28 72.56 16.21 72.59 16.16 72.64C16.11 72.69 16.08 72.78 16.08 72.89V74.01Z" fill="#231815"/>
<path d="M17.7104 74.88V72.01H18.2905V72.29H18.3004C18.3604 72.2 18.4305 72.13 18.5205 72.07C18.6105 72.01 18.7105 71.98 18.8505 71.98C18.9205 71.98 18.9904 71.99 19.0604 72.02C19.1304 72.04 19.2005 72.08 19.2505 72.14C19.3105 72.2 19.3504 72.27 19.3904 72.36C19.4204 72.45 19.4405 72.56 19.4405 72.69V74.89H18.8605V72.91C18.8605 72.8 18.8405 72.72 18.7905 72.66C18.7405 72.6 18.6705 72.57 18.5805 72.57C18.4705 72.57 18.4005 72.6 18.3505 72.67C18.3105 72.74 18.2905 72.84 18.2905 72.96V74.89H17.7104V74.88Z" fill="#231815"/>
<path d="M21.03 74.88L21.93 70.85H22.41L23.31 74.88H22.73L22.56 74.02H21.77L21.6 74.88H21.02H21.03ZM22.45 73.48L22.17 72.02H22.16L21.88 73.48H22.46H22.45Z" fill="#231815"/>
<path d="M24.7901 72.82C24.7901 72.72 24.7501 72.65 24.7001 72.6C24.6501 72.55 24.5701 72.53 24.5001 72.53C24.4101 72.53 24.3401 72.56 24.2901 72.62C24.2401 72.68 24.2201 72.75 24.2201 72.82C24.2201 72.87 24.2301 72.92 24.2601 72.98C24.2901 73.03 24.3501 73.08 24.4601 73.12L24.8001 73.26C25.0101 73.34 25.1601 73.46 25.2401 73.6C25.3201 73.74 25.3601 73.9 25.3601 74.07C25.3601 74.19 25.3401 74.3 25.2901 74.41C25.2501 74.51 25.1901 74.61 25.1101 74.68C25.0301 74.76 24.9401 74.82 24.8401 74.87C24.7401 74.92 24.6201 74.94 24.5001 74.94C24.2701 74.94 24.0701 74.87 23.9101 74.72C23.8301 74.65 23.7701 74.56 23.7201 74.45C23.6701 74.34 23.6401 74.22 23.6401 74.07H24.1801C24.1901 74.15 24.2201 74.22 24.2601 74.29C24.3001 74.36 24.3801 74.39 24.4901 74.39C24.5701 74.39 24.6501 74.36 24.7101 74.31C24.7801 74.26 24.8101 74.18 24.8101 74.08C24.8101 74 24.7901 73.93 24.7501 73.88C24.7101 73.82 24.6301 73.77 24.5201 73.73L24.2401 73.63C24.0601 73.56 23.9201 73.46 23.8101 73.33C23.7001 73.2 23.6501 73.03 23.6501 72.84C23.6501 72.72 23.6701 72.61 23.7201 72.5C23.7701 72.39 23.8301 72.31 23.9101 72.23C23.9901 72.15 24.0701 72.1 24.1801 72.06C24.2801 72.02 24.3901 72 24.5101 72C24.6301 72 24.7401 72.02 24.8401 72.06C24.9401 72.1 25.0301 72.16 25.1001 72.24C25.1701 72.32 25.2301 72.4 25.2701 72.51C25.3101 72.61 25.3301 72.72 25.3301 72.84H24.7901V72.82Z" fill="#231815"/>
<path d="M26.9103 72.82C26.9103 72.72 26.8703 72.65 26.8203 72.6C26.7703 72.55 26.6903 72.53 26.6203 72.53C26.5303 72.53 26.4603 72.56 26.4103 72.62C26.3603 72.68 26.3403 72.75 26.3403 72.82C26.3403 72.87 26.3503 72.92 26.3803 72.98C26.4103 73.03 26.4703 73.08 26.5803 73.12L26.9203 73.26C27.1303 73.34 27.2803 73.46 27.3603 73.6C27.4403 73.74 27.4803 73.9 27.4803 74.07C27.4803 74.19 27.4603 74.3 27.4103 74.41C27.3703 74.51 27.3103 74.61 27.2303 74.68C27.1503 74.76 27.0603 74.82 26.9603 74.87C26.8603 74.92 26.7403 74.94 26.6203 74.94C26.3903 74.94 26.1903 74.87 26.0303 74.72C25.9503 74.65 25.8903 74.56 25.8403 74.45C25.7903 74.34 25.7603 74.22 25.7603 74.07H26.3003C26.3103 74.15 26.3403 74.22 26.3803 74.29C26.4203 74.36 26.5003 74.39 26.6103 74.39C26.6903 74.39 26.7703 74.36 26.8303 74.31C26.9003 74.26 26.9303 74.18 26.9303 74.08C26.9303 74 26.9103 73.93 26.8703 73.88C26.8303 73.82 26.7503 73.77 26.6403 73.73L26.3603 73.63C26.1803 73.56 26.0403 73.46 25.9303 73.33C25.8203 73.2 25.7703 73.03 25.7703 72.84C25.7703 72.72 25.7903 72.61 25.8403 72.5C25.8903 72.39 25.9503 72.31 26.0303 72.23C26.1103 72.15 26.1903 72.1 26.3003 72.06C26.4003 72.02 26.5103 72 26.6303 72C26.7503 72 26.8603 72.02 26.9603 72.06C27.0603 72.1 27.1503 72.16 27.2203 72.24C27.2903 72.32 27.3503 72.4 27.3903 72.51C27.4303 72.61 27.4503 72.72 27.4503 72.84H26.9103V72.82Z" fill="#231815"/>
<path d="M27.9102 72.98C27.9102 72.86 27.9102 72.76 27.9302 72.66C27.9502 72.56 27.9702 72.48 28.0102 72.4C28.0802 72.28 28.1702 72.18 28.3002 72.1C28.4302 72.02 28.5802 71.99 28.7602 71.99C28.9402 71.99 29.0902 72.03 29.2202 72.1C29.3502 72.18 29.4402 72.28 29.5102 72.4C29.5502 72.48 29.5802 72.56 29.5902 72.66C29.6102 72.76 29.6102 72.87 29.6102 72.98V73.92C29.6102 74.04 29.6102 74.14 29.5902 74.24C29.5702 74.34 29.5502 74.42 29.5102 74.5C29.4402 74.62 29.3502 74.72 29.2202 74.8C29.0902 74.88 28.9402 74.91 28.7602 74.91C28.5802 74.91 28.4302 74.87 28.3002 74.8C28.1702 74.72 28.0802 74.62 28.0102 74.5C27.9702 74.42 27.9402 74.34 27.9302 74.24C27.9102 74.14 27.9102 74.03 27.9102 73.92V72.98ZM28.4902 74.01C28.4902 74.12 28.5202 74.2 28.5702 74.26C28.6202 74.31 28.6902 74.34 28.7802 74.34C28.8702 74.34 28.9402 74.31 28.9902 74.26C29.0402 74.21 29.0702 74.12 29.0702 74.01V72.89C29.0702 72.78 29.0402 72.7 28.9902 72.64C28.9402 72.59 28.8702 72.56 28.7802 72.56C28.6902 72.56 28.6202 72.59 28.5702 72.64C28.5202 72.69 28.4902 72.78 28.4902 72.89V74.01Z" fill="#231815"/>
<path d="M30.6704 74.06C30.6704 74.15 30.7004 74.22 30.7504 74.27C30.8004 74.32 30.8704 74.34 30.9604 74.34C31.0704 74.34 31.1404 74.31 31.1804 74.24C31.2204 74.18 31.2404 74.11 31.2404 74.05H31.8204C31.8204 74.3 31.7404 74.51 31.5904 74.66C31.5104 74.74 31.4204 74.8 31.3204 74.85C31.2204 74.9 31.1004 74.92 30.9604 74.92C30.7804 74.92 30.6304 74.88 30.5004 74.81C30.3704 74.73 30.2804 74.63 30.2104 74.51C30.1704 74.43 30.1404 74.35 30.1304 74.25C30.1104 74.15 30.1104 74.04 30.1104 73.93V72.99C30.1104 72.87 30.1104 72.77 30.1304 72.67C30.1504 72.57 30.1704 72.49 30.2104 72.41C30.2804 72.29 30.3704 72.19 30.5004 72.11C30.6304 72.03 30.7804 72 30.9604 72C31.0904 72 31.2104 72.02 31.3204 72.07C31.4304 72.12 31.5204 72.18 31.5904 72.26C31.7404 72.43 31.8204 72.65 31.8204 72.92H31.2404C31.2404 72.8 31.2104 72.72 31.1604 72.66C31.1104 72.61 31.0404 72.58 30.9504 72.58C30.8604 72.58 30.7904 72.61 30.7404 72.66C30.6904 72.71 30.6604 72.8 30.6604 72.91V74.08L30.6704 74.06Z" fill="#231815"/>
<path d="M32.3203 71.44V70.86H32.9003V71.44H32.3203ZM32.3203 74.88V72.01H32.9003V74.88H32.3203Z" fill="#231815"/>
<path d="M34.5804 74.88V74.59H34.5704C34.4904 74.7 34.4204 74.78 34.3404 74.83C34.2604 74.89 34.1504 74.91 34.0104 74.91C33.9404 74.91 33.8704 74.9 33.8004 74.88C33.7304 74.86 33.6604 74.82 33.6004 74.76C33.5404 74.71 33.4804 74.63 33.4404 74.53C33.4004 74.43 33.3804 74.3 33.3804 74.14C33.3804 73.98 33.3904 73.84 33.4204 73.71C33.4504 73.59 33.5004 73.48 33.5704 73.4C33.6404 73.32 33.7304 73.26 33.8504 73.22C33.9704 73.18 34.1204 73.16 34.3004 73.16H34.3604C34.3604 73.16 34.4004 73.16 34.4204 73.16C34.4404 73.16 34.4604 73.16 34.4904 73.16C34.5204 73.16 34.5404 73.16 34.5704 73.16V72.86C34.5704 72.76 34.5504 72.68 34.5104 72.62C34.4704 72.56 34.3904 72.52 34.2804 72.52C34.2004 72.52 34.1404 72.54 34.0704 72.59C34.0004 72.64 33.9704 72.71 33.9504 72.8H33.3904C33.4104 72.54 33.4904 72.34 33.6504 72.18C33.7304 72.1 33.8204 72.05 33.9204 72C34.0304 71.96 34.1404 71.94 34.2804 71.94C34.4004 71.94 34.5104 71.96 34.6204 72C34.7304 72.04 34.8204 72.09 34.9004 72.17C34.9804 72.25 35.0404 72.34 35.0804 72.45C35.1304 72.56 35.1504 72.7 35.1504 72.85V74.85H34.5704L34.5804 74.88ZM34.5804 73.65C34.5204 73.64 34.4604 73.63 34.4204 73.63C34.3004 73.63 34.1904 73.66 34.1004 73.72C34.0104 73.78 33.9704 73.88 33.9704 74.04C33.9704 74.15 34.0004 74.24 34.0504 74.31C34.1004 74.38 34.1804 74.41 34.2704 74.41C34.3604 74.41 34.4404 74.38 34.5004 74.31C34.5504 74.25 34.5804 74.16 34.5804 74.04V73.65Z" fill="#231815"/>
<path d="M35.8 72.02V71.15H36.38V72.02H36.74V72.47H36.38V74.06C36.38 74.13 36.38 74.18 36.4 74.22C36.41 74.26 36.43 74.29 36.46 74.3C36.49 74.31 36.53 74.33 36.57 74.33C36.61 74.33 36.67 74.33 36.73 74.33V74.87H36.49C36.36 74.87 36.25 74.85 36.16 74.81C36.07 74.77 36 74.72 35.95 74.65C35.9 74.59 35.86 74.51 35.83 74.43C35.8 74.35 35.79 74.27 35.79 74.2V72.46H35.5V72.01H35.79L35.8 72.02Z" fill="#231815"/>
<path d="M37.2305 71.44V70.86H37.8105V71.44H37.2305ZM37.2305 74.88V72.01H37.8105V74.88H37.2305Z" fill="#231815"/>
<path d="M38.3501 72.98C38.3501 72.86 38.3501 72.76 38.3701 72.66C38.3901 72.56 38.4101 72.48 38.4501 72.4C38.5201 72.28 38.6101 72.18 38.7401 72.1C38.8701 72.02 39.0201 71.99 39.2001 71.99C39.3801 71.99 39.5301 72.03 39.6601 72.1C39.7901 72.18 39.8801 72.28 39.9501 72.4C39.9901 72.48 40.0201 72.56 40.0301 72.66C40.0501 72.76 40.0501 72.87 40.0501 72.98V73.92C40.0501 74.04 40.0501 74.14 40.0301 74.24C40.0101 74.34 39.9901 74.42 39.9501 74.5C39.8801 74.62 39.7901 74.72 39.6601 74.8C39.5301 74.88 39.3801 74.91 39.2001 74.91C39.0201 74.91 38.8701 74.87 38.7401 74.8C38.6101 74.72 38.5201 74.62 38.4501 74.5C38.4101 74.42 38.3801 74.34 38.3701 74.24C38.3501 74.14 38.3501 74.03 38.3501 73.92V72.98ZM38.9201 74.01C38.9201 74.12 38.9501 74.2 39.0001 74.26C39.0501 74.31 39.1201 74.34 39.2101 74.34C39.3001 74.34 39.3701 74.31 39.4201 74.26C39.4701 74.21 39.5001 74.12 39.5001 74.01V72.89C39.5001 72.78 39.4701 72.7 39.4201 72.64C39.3701 72.59 39.3001 72.56 39.2101 72.56C39.1201 72.56 39.0501 72.59 39.0001 72.64C38.9501 72.69 38.9201 72.78 38.9201 72.89V74.01Z" fill="#231815"/>
<path d="M40.5601 74.88V72.01H41.1401V72.29H41.1501C41.2101 72.2 41.2801 72.13 41.3701 72.07C41.4601 72.01 41.5601 71.98 41.7001 71.98C41.7701 71.98 41.8401 71.99 41.9101 72.02C41.9801 72.04 42.0501 72.08 42.1001 72.14C42.1601 72.2 42.2001 72.27 42.2401 72.36C42.2701 72.45 42.2901 72.56 42.2901 72.69V74.89H41.7101V72.91C41.7101 72.8 41.6901 72.72 41.6401 72.66C41.5901 72.6 41.5201 72.57 41.4301 72.57C41.3201 72.57 41.2501 72.6 41.2001 72.67C41.1601 72.74 41.1401 72.84 41.1401 72.96V74.89H40.5601V74.88Z" fill="#231815"/>
<path d="M44.0503 72.98C44.0503 72.86 44.0503 72.76 44.0703 72.66C44.0903 72.56 44.1103 72.48 44.1503 72.4C44.2203 72.28 44.3103 72.18 44.4403 72.1C44.5703 72.02 44.7203 71.99 44.9003 71.99C45.0803 71.99 45.2303 72.03 45.3603 72.1C45.4903 72.18 45.5803 72.28 45.6503 72.4C45.6903 72.48 45.7203 72.56 45.7303 72.66C45.7503 72.76 45.7503 72.87 45.7503 72.98V73.92C45.7503 74.04 45.7503 74.14 45.7303 74.24C45.7103 74.34 45.6903 74.42 45.6503 74.5C45.5803 74.62 45.4903 74.72 45.3603 74.8C45.2303 74.88 45.0803 74.91 44.9003 74.91C44.7203 74.91 44.5703 74.87 44.4403 74.8C44.3103 74.72 44.2203 74.62 44.1503 74.5C44.1103 74.42 44.0803 74.34 44.0703 74.24C44.0503 74.14 44.0503 74.03 44.0503 73.92V72.98ZM44.6303 74.01C44.6303 74.12 44.6603 74.2 44.7103 74.26C44.7603 74.31 44.8303 74.34 44.9203 74.34C45.0103 74.34 45.0803 74.31 45.1303 74.26C45.1803 74.21 45.2103 74.12 45.2103 74.01V72.89C45.2103 72.78 45.1803 72.7 45.1303 72.64C45.0803 72.59 45.0103 72.56 44.9203 72.56C44.8303 72.56 44.7603 72.59 44.7103 72.64C44.6603 72.69 44.6303 72.78 44.6303 72.89V74.01Z" fill="#231815"/>
<path d="M46.4704 74.88V72.47H46.1904V72.02H46.4704V71.63C46.4704 71.49 46.4904 71.37 46.5304 71.28C46.5704 71.18 46.6304 71.1 46.7004 71.04C46.7704 70.98 46.8504 70.93 46.9304 70.9C47.0104 70.87 47.1104 70.86 47.2004 70.86H47.4704V71.4H47.2104C47.1004 71.4 47.0404 71.47 47.0404 71.6V72.02H47.4704V72.47H47.0404V74.88H46.4604H46.4704Z" fill="#231815"/>
<path d="M50.3704 70.86V73.94C50.3704 74.22 50.2804 74.45 50.1104 74.63C50.0204 74.72 49.9204 74.79 49.8004 74.84C49.6804 74.89 49.5404 74.92 49.3804 74.92C49.2004 74.92 49.0404 74.88 48.9204 74.8C48.8004 74.72 48.7004 74.64 48.6304 74.56L49.0804 74.2C49.0804 74.2 49.1704 74.28 49.2204 74.3C49.2704 74.33 49.3304 74.34 49.3904 74.34C49.4204 74.34 49.4604 74.34 49.5104 74.32C49.5604 74.3 49.6004 74.28 49.6404 74.24C49.6804 74.21 49.7204 74.16 49.7404 74.1C49.7704 74.04 49.7804 73.96 49.7804 73.85V70.85H50.3604L50.3704 70.86Z" fill="#231815"/>
<path d="M52.1502 74.88V74.59H52.1402C52.0602 74.7 51.9902 74.78 51.9102 74.83C51.8302 74.89 51.7202 74.91 51.5802 74.91C51.5102 74.91 51.4402 74.9 51.3702 74.88C51.3002 74.86 51.2302 74.82 51.1702 74.76C51.1102 74.71 51.0502 74.63 51.0102 74.53C50.9702 74.43 50.9502 74.3 50.9502 74.14C50.9502 73.98 50.9602 73.84 50.9902 73.71C51.0202 73.59 51.0702 73.48 51.1402 73.4C51.2102 73.32 51.3002 73.26 51.4202 73.22C51.5402 73.18 51.6902 73.16 51.8702 73.16H51.9302C51.9302 73.16 51.9702 73.16 51.9902 73.16C52.0102 73.16 52.0302 73.16 52.0602 73.16C52.0902 73.16 52.1102 73.16 52.1402 73.16V72.86C52.1402 72.76 52.1202 72.68 52.0802 72.62C52.0402 72.56 51.9602 72.52 51.8502 72.52C51.7702 72.52 51.7102 72.54 51.6402 72.59C51.5702 72.64 51.5402 72.71 51.5202 72.8H50.9602C50.9802 72.54 51.0602 72.34 51.2202 72.18C51.3002 72.1 51.3902 72.05 51.4902 72C51.6002 71.96 51.7102 71.94 51.8502 71.94C51.9702 71.94 52.0802 71.96 52.1902 72C52.3002 72.04 52.3902 72.09 52.4702 72.17C52.5502 72.25 52.6102 72.34 52.6502 72.45C52.7002 72.56 52.7202 72.7 52.7202 72.85V74.85H52.1402L52.1502 74.88ZM52.1502 73.65C52.0902 73.64 52.0302 73.63 51.9902 73.63C51.8702 73.63 51.7602 73.66 51.6702 73.72C51.5802 73.78 51.5402 73.88 51.5402 74.04C51.5402 74.15 51.5702 74.24 51.6202 74.31C51.6702 74.38 51.7502 74.41 51.8402 74.41C51.9302 74.41 52.0102 74.38 52.0702 74.31C52.1202 74.25 52.1502 74.16 52.1502 74.04V73.65Z" fill="#231815"/>
<path d="M53.3 76.04V72.01H53.88V72.27C53.95 72.19 54.03 72.12 54.1 72.06C54.17 72 54.28 71.98 54.43 71.98C54.67 71.98 54.84 72.07 54.93 72.25C54.96 72.31 54.99 72.39 55 72.49C55.02 72.58 55.02 72.71 55.02 72.87V73.96C55.02 74.17 55.02 74.32 55 74.42C54.98 74.61 54.89 74.75 54.74 74.84C54.66 74.89 54.56 74.91 54.41 74.91C54.3 74.91 54.2 74.88 54.11 74.83C54.02 74.78 53.95 74.71 53.88 74.61H53.87V76.03H53.29L53.3 76.04ZM54.45 72.95C54.45 72.83 54.43 72.74 54.38 72.67C54.33 72.6 54.26 72.56 54.17 72.56C54.08 72.56 54.01 72.59 53.96 72.66C53.91 72.73 53.88 72.81 53.88 72.92V74.03C53.88 74.12 53.91 74.19 53.96 74.25C54.01 74.31 54.08 74.34 54.17 74.34C54.28 74.34 54.35 74.31 54.39 74.24C54.43 74.17 54.45 74.09 54.45 74V72.95Z" fill="#231815"/>
<path d="M56.6902 74.88V74.59H56.6802C56.6002 74.7 56.5302 74.78 56.4502 74.83C56.3702 74.89 56.2602 74.91 56.1202 74.91C56.0502 74.91 55.9802 74.9 55.9102 74.88C55.8402 74.86 55.7702 74.82 55.7102 74.76C55.6502 74.71 55.5902 74.63 55.5502 74.53C55.5102 74.43 55.4902 74.3 55.4902 74.14C55.4902 73.98 55.5002 73.84 55.5302 73.71C55.5602 73.59 55.6102 73.48 55.6802 73.4C55.7502 73.32 55.8402 73.26 55.9602 73.22C56.0802 73.18 56.2302 73.16 56.4102 73.16H56.4702C56.4702 73.16 56.5102 73.16 56.5302 73.16C56.5502 73.16 56.5702 73.16 56.6002 73.16C56.6302 73.16 56.6502 73.16 56.6802 73.16V72.86C56.6802 72.76 56.6602 72.68 56.6202 72.62C56.5802 72.56 56.5002 72.52 56.3902 72.52C56.3102 72.52 56.2502 72.54 56.1802 72.59C56.1102 72.64 56.0802 72.71 56.0602 72.8H55.5002C55.5202 72.54 55.6002 72.34 55.7602 72.18C55.8402 72.1 55.9302 72.05 56.0302 72C56.1402 71.96 56.2502 71.94 56.3902 71.94C56.5102 71.94 56.6202 71.96 56.7302 72C56.8402 72.04 56.9302 72.09 57.0102 72.17C57.0902 72.25 57.1502 72.34 57.1902 72.45C57.2402 72.56 57.2602 72.7 57.2602 72.85V74.85H56.6802L56.6902 74.88ZM56.6902 73.65C56.6302 73.64 56.5702 73.63 56.5302 73.63C56.4102 73.63 56.3002 73.66 56.2102 73.72C56.1202 73.78 56.0802 73.88 56.0802 74.04C56.0802 74.15 56.1102 74.24 56.1602 74.31C56.2102 74.38 56.2902 74.41 56.3802 74.41C56.4702 74.41 56.5502 74.38 56.6102 74.31C56.6602 74.25 56.6902 74.16 56.6902 74.04V73.65Z" fill="#231815"/>
<path d="M57.8301 74.88V72.01H58.4101V72.29H58.4201C58.4801 72.2 58.5501 72.13 58.6401 72.07C58.7301 72.01 58.8301 71.98 58.9701 71.98C59.0401 71.98 59.1101 71.99 59.1801 72.02C59.2501 72.04 59.3201 72.08 59.3701 72.14C59.4301 72.2 59.4701 72.27 59.5101 72.36C59.5401 72.45 59.5601 72.56 59.5601 72.69V74.89H58.9801V72.91C58.9801 72.8 58.9601 72.72 58.9101 72.66C58.8601 72.6 58.7901 72.57 58.7001 72.57C58.5901 72.57 58.5201 72.6 58.4701 72.67C58.4301 72.74 58.4101 72.84 58.4101 72.96V74.89H57.8301V74.88Z" fill="#231815"/>
<path d="M7.97021 0L15.2902 39.11C15.2902 39.11 16.1902 44.43 16.6102 46.17C17.7602 50.96 22.3702 54.95 29.7502 54.95C37.1302 54.95 41.7402 50.96 42.8802 46.17C43.3002 44.42 44.2002 39.11 44.2002 39.11L51.5002 0H7.97021Z" fill="white"/>
<path d="M14.5604 35.23L9.15039 6.34003H13.5404C14.5004 6.34003 15.3604 6.54003 16.1204 6.95003C16.8704 7.36003 17.5304 7.90003 18.0904 8.57003C18.6504 9.25003 19.1004 10.02 19.4604 10.9C19.8104 11.78 20.0804 12.69 20.2504 13.64L20.4504 14.7C20.6004 15.48 20.6804 16.15 20.6904 16.69C20.7004 17.23 20.6604 17.7 20.5604 18.11C20.3704 18.87 19.9804 19.52 19.3904 20.06C20.1804 20.52 20.8304 21.2 21.3304 22.09C21.8304 22.98 22.2304 24.2 22.5104 25.74L22.8104 27.36C23.2904 29.9 23.2004 31.85 22.5604 33.2C21.9204 34.55 20.6104 35.23 18.6504 35.23H14.5504H14.5604ZM12.6904 9.15003L14.4804 18.72H15.8404C16.8404 18.72 17.4404 18.31 17.6304 17.48C17.8204 16.65 17.7604 15.44 17.4704 13.84C17.1804 12.28 16.7704 11.11 16.2404 10.33C15.7104 9.55003 14.9404 9.16003 13.9404 9.16003H12.7004L12.6904 9.15003ZM14.9604 21.33L17.0104 32.27H18.3104C18.9204 32.27 19.3704 32.13 19.6604 31.84C19.9504 31.55 20.1404 31.15 20.2204 30.64C20.3004 30.13 20.3004 29.52 20.2004 28.82C20.1104 28.12 19.9804 27.35 19.8304 26.52C19.6704 25.66 19.5004 24.9 19.3204 24.26C19.1404 23.62 18.9204 23.08 18.6604 22.63C18.3804 22.18 18.0504 21.85 17.6804 21.65C17.3104 21.44 16.8404 21.34 16.2904 21.34H14.9604V21.33Z" fill="#231815"/>
<path d="M51.0402 2.46L51.5002 0H7.97021L8.43022 2.46H51.0402Z" fill="#231815"/>
<path d="M19.3301 45.52C19.3401 45.58 19.3601 45.64 19.3801 45.7H40.0901C40.1101 45.64 40.1201 45.58 40.1401 45.52C40.3101 44.81 40.5901 43.35 40.8401 41.92H18.6201C18.8801 43.35 19.1501 44.81 19.3201 45.52H19.3301Z" fill="#E50012"/>
<path d="M40.8403 41.92C40.5803 43.35 40.3103 44.81 40.1403 45.52C39.7003 47.34 38.6203 48.92 37.0003 50.08C35.1203 51.43 32.6103 52.15 29.7403 52.15C26.8703 52.15 24.3503 51.44 22.4803 50.08C20.8603 48.91 19.7703 47.34 19.3403 45.52C19.1703 44.81 18.8903 43.35 18.6403 41.92H40.8603H40.8403ZM44.1803 39.11H15.2803C15.2803 39.11 16.1803 44.43 16.6003 46.17C17.7503 50.96 22.3603 54.95 29.7303 54.95C37.1003 54.95 41.7203 50.96 42.8603 46.17C43.2803 44.42 44.1803 39.11 44.1803 39.11Z" fill="#231815"/>
<path d="M31.03 6.09998H28.44L23.79 35.23H26.8L27.68 28.91L27.76 28.34H31.7L31.78 28.91L32.66 35.23H35.67L31.02 6.09998H31.03ZM28.14 25.51L28.22 24.94L29.69 14.29H29.75L31.22 24.94L31.3 25.51H28.14Z" fill="#231815"/>
<path d="M42.8004 30.44C42.7404 30.77 42.6404 31.25 42.3504 31.7C42.0304 32.2 41.5005 32.53 40.8305 32.53C40.1605 32.53 39.6305 32.2 39.3105 31.7C39.0205 31.25 38.9205 30.77 38.8605 30.44L35.9604 30.98C36.1304 31.89 36.4604 33.15 37.5704 34.19C38.3204 34.9 39.4405 35.48 40.8405 35.48C42.2405 35.48 43.3605 34.9 44.1105 34.19C45.2105 33.14 45.5505 31.88 45.7205 30.98L50.3305 6.34003H47.3204L42.8105 30.44H42.8004Z" fill="#231815"/>
</g>
<defs>
<clipPath id="clip0_6105_74389">
<rect width="60" height="76.04" fill="white"/>
</clipPath>
</defs>
</svg>
